<?xml version="1.0" encoding="UTF-8" standalone="no"?>
<!-- Created with Inkscape (http://www.inkscape.org/) -->

<svg
   version="1.1"
   id="svg259"
   width="928.70099"
   height="515.52002"
   viewBox="0 0 928.70098 515.52006"
   sodipodi:docname="Permyriad.svg"
   inkscape:version="1.2.1 (9c6d41e, 2022-07-14)"
   xmlns:inkscape="http://www.inkscape.org/namespaces/inkscape"
   xmlns:sodipodi="http://sodipodi.sourceforge.net/DTD/sodipodi-0.dtd"
   xmlns="http://www.w3.org/2000/svg"
   xmlns:svg="http://www.w3.org/2000/svg">
  <defs
     id="defs263">
    <rect
       x="401.91559"
       y="388.46234"
       width="548.2196"
       height="85.764412"
       id="rect448" />
    <clipPath
       clipPathUnits="userSpaceOnUse"
       id="clipPath275">
      <path
         d="M 0,364.56 H 701.76 V 0 H 0 Z"
         id="path273" />
    </clipPath>
  </defs>
  <sodipodi:namedview
     id="namedview261"
     pagecolor="#ffffff"
     bordercolor="#000000"
     borderopacity="0.25"
     inkscape:showpageshadow="2"
     inkscape:pageopacity="0.0"
     inkscape:pagecheckerboard="0"
     inkscape:deskcolor="#d1d1d1"
     showgrid="true"
     inkscape:zoom="0.21024131"
     inkscape:cx="92.750565"
     inkscape:cy="561.25983"
     inkscape:window-width="1470"
     inkscape:window-height="920"
     inkscape:window-x="0"
     inkscape:window-y="36"
     inkscape:window-maximized="0"
     inkscape:current-layer="g267">
    <inkscape:grid
       type="xygrid"
       id="grid3040"
       spacingx="1"
       spacingy="0.70000002" />
  </sodipodi:namedview>
  <g
     id="g267"
     inkscape:groupmode="layer"
     inkscape:label="Page 1"
     transform="matrix(1.3333333,0,0,-1.3333333,0,486.08)">
    <g
       id="g269">
      <g
         id="g271"
         clip-path="url(#clipPath275)">
        <g
           id="g277"
           transform="translate(410.3995,326.6399)">
          <path
             d="m 0,0 c -57.014,-95.73 -114.029,-191.459 -171.021,-287.203 -0.552,-0.926 -1.105,-1.343 -2.228,-1.307 -2.875,0.091 -5.755,0.03 -8.883,0.03 0.324,0.563 0.563,0.988 0.812,1.407 28.65,48.106 57.302,96.21 85.951,144.316 28.139,47.249 56.275,94.498 84.413,141.747 0.204,0.342 0.424,0.674 0.637,1.01 z"
             style="fill:#949494;fill-opacity:1;fill-rule:nonzero;stroke:none"
             id="path279" />
        </g>
        <g
           id="g281"
           transform="translate(658.5597,110.8191)">
          <path
             d="m 0,0 h -371.508 c 0.128,0.348 0.182,0.603 0.307,0.815 0.949,1.621 1.932,3.221 2.857,4.854 0.358,0.631 0.801,0.942 1.533,0.848 0.314,-0.041 0.639,-0.007 0.959,-0.007 121.431,0 242.863,0.001 364.294,-10e-4 0.52,0 1.038,-0.023 1.558,-0.034 z"
             style="fill:#008cc0;fill-opacity:1;fill-rule:nonzero;stroke:none"
             id="path283" />
        </g>
        <g
           id="g285"
           transform="translate(609.4064,131.4851)">
          <path
             d="m 0,0 c 0.359,-0.035 0.63,-0.083 0.899,-0.083 5.877,-0.005 11.757,-0.114 17.63,0.044 2.937,0.079 5.913,0.412 8.778,1.05 5.999,1.335 10.368,4.754 12.07,10.87 1.926,6.923 1.902,13.897 -0.203,20.786 -1.366,4.471 -4.398,7.51 -8.716,9.284 -3.567,1.466 -7.318,1.998 -11.131,2.042 -5.996,0.07 -11.993,0.019 -17.99,0.019 H 0 Z M 49.153,17.942 C 48.773,15.831 48.5,13.693 47.995,11.612 46.279,4.547 42.816,-1.334 36.263,-4.992 32.467,-7.11 28.315,-8.1 24.027,-8.51 21.804,-8.722 19.562,-8.816 17.327,-8.826 9.25,-8.862 1.173,-8.841 -6.904,-8.841 h -1.484 v 61.503 c 0.352,0.025 0.66,0.065 0.969,0.065 9.156,-0.013 18.315,0.096 27.468,-0.086 6.381,-0.127 12.574,-1.386 18.023,-4.971 5.979,-3.933 9.023,-9.755 10.294,-16.628 0.304,-1.642 0.528,-3.298 0.787,-4.946 z"
             style="fill:#163b4e;fill-opacity:1;fill-rule:nonzero;stroke:none"
             id="path287" />
        </g>
        <g
           id="g289"
           transform="translate(43.1998,117.2937)">
          <path
             d="m 0,0 c 0.52,0.012 1.039,0.034 1.558,0.034 74.667,0.002 149.333,0.001 224,0.001 h 1.71 c -0.67,-1.129 -1.407,-2.036 -1.785,-3.073 -1.084,-2.977 -3.135,-3.516 -6.163,-3.512 C 146.214,-6.453 73.107,-6.475 0,-6.475 Z"
             style="fill:#008cc0;fill-opacity:1;fill-rule:nonzero;stroke:none"
             id="path291" />
        </g>
        <g
           id="g293"
           transform="translate(51.6075,156.6452)">
          <path
             d="m 0,0 c 0.375,-0.028 0.61,-0.062 0.845,-0.062 8.56,-0.002 17.12,-0.057 25.679,0.034 2.381,0.025 4.801,0.28 7.123,0.792 2.873,0.632 4.682,2.563 5.001,5.572 0.184,1.739 0.284,3.517 0.147,5.256 -0.289,3.674 -2.022,5.731 -5.645,6.482 -2.213,0.459 -4.518,0.628 -6.784,0.648 -8.359,0.073 -16.72,0.03 -25.079,0.026 -0.421,0 -0.842,-0.046 -1.287,-0.072 z m -8.408,27.553 c 11.717,-0.01 23.433,0.042 35.148,-0.063 4.204,-0.037 8.345,-0.724 12.279,-2.372 4.329,-1.813 6.997,-4.996 7.785,-9.596 C 47.613,10.805 47.74,6.06 46.348,1.405 45.289,-2.131 42.961,-4.58 39.599,-6.093 35.664,-7.863 31.491,-8.569 27.238,-8.631 18.683,-8.754 10.125,-8.713 1.569,-8.739 c -0.507,-10e-4 -1.016,0 -1.583,0 v -25.336 h -8.394 z"
             style="fill:#163b4e;fill-opacity:1;fill-rule:nonzero;stroke:none"
             id="path295" />
        </g>
        <g
           id="g297"
           transform="translate(208.2174,156.5808)">
          <path
             d="m 0,0 c 3.758,0 7.519,-0.091 11.272,0.031 2.504,0.082 5.035,0.281 7.487,0.763 3.041,0.598 4.874,2.769 5.171,5.826 0.169,1.739 0.201,3.517 0.055,5.256 -0.291,3.473 -2.14,5.543 -5.569,6.288 -1.514,0.33 -3.085,0.538 -4.631,0.551 -9.154,0.074 -18.308,0.064 -27.462,0.117 -0.902,0.006 -1.157,-0.28 -1.151,-1.165 0.035,-5.513 0.036,-11.024 -0.001,-16.537 -0.006,-0.897 0.263,-1.157 1.157,-1.149 C -9.115,0.022 -4.558,0 0,0 m -14.795,-8.786 v -25.071 h -8.346 v 61.43 c 0.379,0.02 0.761,0.058 1.142,0.058 11.277,-0.012 22.553,0.031 33.829,-0.073 4.248,-0.039 8.43,-0.704 12.406,-2.367 4.426,-1.85 7.025,-5.124 7.869,-9.812 0.664,-3.689 0.694,-7.4 0.124,-11.091 -1.03,-6.679 -5.326,-10.294 -11.587,-11.89 -2.071,-0.528 -4.208,-0.799 -6.525,-1.227 7.119,-8.337 14.177,-16.604 21.438,-25.108 H 32.48 c -2.439,0 -4.88,-0.043 -7.316,0.035 -0.548,0.017 -1.247,0.323 -1.598,0.734 -6.752,7.895 -13.457,15.829 -20.2,23.73 -0.318,0.374 -0.905,0.727 -1.369,0.731 -5.318,0.051 -10.637,0.032 -15.955,0.026 -0.233,0 -0.465,-0.056 -0.837,-0.105"
             style="fill:#163b4e;fill-opacity:1;fill-rule:nonzero;stroke:none"
             id="path299" />
        </g>
        <g
           id="g301"
           transform="translate(427.3829,156.6374)">
          <path
             d="m 0,0 c 0.345,-0.023 0.58,-0.054 0.816,-0.054 8.556,-0.003 17.111,-0.056 25.665,0.033 2.379,0.024 4.794,0.287 7.123,0.778 2.947,0.622 4.732,2.624 5.081,5.647 0.199,1.736 0.229,3.513 0.11,5.256 -0.239,3.489 -2.02,5.67 -5.459,6.376 -2.329,0.478 -4.75,0.669 -7.133,0.693 -8.274,0.08 -16.55,0.03 -24.825,0.03 H 0 Z m -0.009,-33.92 h -8.324 v 61.44 c 0.449,0.021 0.839,0.055 1.229,0.055 11.158,-0.013 22.316,0.011 33.474,-0.066 3.888,-0.027 7.718,-0.609 11.423,-1.889 5.245,-1.811 8.511,-5.362 9.146,-10.905 0.358,-3.114 0.439,-6.314 0.175,-9.436 C 46.549,-1.422 42.665,-5.562 36.305,-7.398 34.32,-7.972 32.238,-8.207 30.2,-8.59 c -0.378,-0.071 -0.763,-0.109 -1.399,-0.199 7.197,-8.428 14.255,-16.693 21.459,-25.13 -0.618,-0.033 -1,-0.07 -1.381,-0.071 -2.92,-0.005 -5.841,0.037 -8.759,-0.027 -0.909,-0.019 -1.453,0.322 -2.011,0.982 -6.574,7.787 -13.182,15.544 -19.754,23.333 -0.593,0.704 -1.197,1.001 -2.13,0.992 C 11.266,-8.756 6.306,-8.731 1.347,-8.731 h -1.356 z"
             style="fill:#163b4e;fill-opacity:1;fill-rule:nonzero;stroke:none"
             id="path303" />
        </g>
        <g
           id="g305"
           transform="translate(157.6603,150.1589)">
          <path
             d="M 0,0 H -33.688 V -18.753 H 10.54 v -8.677 h -52.56 v 61.387 h 52.684 v -8.81 H -33.708 V 8.712 H 0 Z"
             style="fill:#163b4e;fill-opacity:1;fill-rule:nonzero;stroke:none"
             id="path307" />
        </g>
        <g
           id="g309"
           transform="translate(543.8048,151.2605)">
          <path
             d="M 0,0 H 15.758 C 13.142,5.033 10.597,9.929 7.949,15.023 5.229,9.883 2.66,5.026 0,0 M 7.955,33.172 C 18.851,12.475 29.604,-7.956 40.48,-28.616 c -2.141,0 -4.075,0.215 -5.941,-0.05 -2.847,-0.404 -4.294,0.694 -5.504,3.272 -2.506,5.345 -5.431,10.493 -8.145,15.742 -0.437,0.844 -0.953,1.169 -1.935,1.163 -7.357,-0.046 -14.717,-0.048 -22.074,0.001 -1.021,0.007 -1.561,-0.295 -2.027,-1.203 -3.084,-6.001 -6.24,-11.966 -9.333,-17.963 -0.356,-0.692 -0.724,-1.002 -1.538,-0.983 -2.437,0.058 -4.878,0.018 -7.317,0.025 -0.344,10e-4 -0.687,0.051 -1.187,0.092 10.829,20.57 21.584,41.002 32.476,61.692"
             style="fill:#163b4e;fill-opacity:1;fill-rule:nonzero;stroke:none"
             id="path311" />
        </g>
        <g
           id="g313"
           transform="translate(338.5065,184.2112)">
          <path
             d="m 0,0 c 3.711,0 7.176,0.021 10.639,-0.033 0.34,-0.005 0.734,-0.41 1.001,-0.718 6.419,-7.392 12.825,-14.796 19.234,-22.198 0.333,-0.384 0.671,-0.762 1.09,-1.239 2.087,2.425 4.091,4.747 6.09,7.074 4.66,5.426 9.327,10.847 13.965,16.293 0.515,0.603 1.039,0.852 1.835,0.842 C 57.086,-0.021 60.32,0.003 63.752,0.003 63.49,-0.383 63.349,-0.642 63.161,-0.859 54.317,-11.12 45.46,-21.371 36.645,-31.655 c -0.417,-0.486 -0.674,-1.275 -0.677,-1.925 -0.044,-8.791 -0.029,-17.583 -0.029,-26.374 v -1.519 H 27.72 v 1.406 c 0,8.751 -0.013,17.502 0.019,26.253 0.004,1.017 -0.243,1.792 -0.923,2.579 C 18.066,-21.104 9.351,-10.943 0.627,-0.789 0.472,-0.608 0.33,-0.416 0,0"
             style="fill:#163b4e;fill-opacity:1;fill-rule:nonzero;stroke:none"
             id="path315" />
        </g>
        <g
           id="g317"
           transform="translate(268.8219,164.2585)">
          <path
             d="m 0,0 v -41.508 h -8.443 v 61.456 c 2.247,0 4.471,0.04 6.692,-0.046 0.321,-0.012 0.687,-0.594 0.917,-0.981 3.431,-5.764 6.842,-11.54 10.259,-17.314 3.193,-5.394 6.362,-10.803 9.603,-16.17 0.664,-1.098 0.857,-1.944 0.071,-3.112 -1.421,-2.11 -2.641,-4.354 -4.094,-6.792 C 10.009,-16.168 5.118,-8.044 0.228,0.081 0.152,0.054 0.076,0.026 0,0"
             style="fill:#163b4e;fill-opacity:1;fill-rule:nonzero;stroke:none"
             id="path319" />
        </g>
        <g
           id="g321"
           transform="translate(434.5353,222.0866)">
          <path
             d="M 0,0 C 0.001,16.106 -13.121,29.266 -29.172,29.256 -45.411,29.246 -58.456,16.26 -58.499,0.06 -58.543,-16.167 -45.457,-29.247 -29.171,-29.255 -13.118,-29.264 0,-16.108 0,0 m 3.601,0.034 c -0.268,-18.343 -14.3,-32.621 -32.651,-32.848 -18.25,-0.226 -33.023,14.578 -33.05,32.78 -0.026,18.136 14.67,32.972 32.863,32.85 18.305,-0.122 32.522,-14.3 32.838,-32.782"
             style="fill:#008cc0;fill-opacity:1;fill-rule:nonzero;stroke:none"
             id="path323" />
        </g>
        <g
           id="g325"
           transform="translate(463.671,222.156)">
          <path
             d="m 0,0 c -0.023,-16.187 13.054,-29.314 29.213,-29.324 16.168,-0.01 29.31,13.099 29.317,29.245 C 58.538,16.012 45.457,29.131 29.351,29.186 13.183,29.24 0.023,16.155 0,0 M 29.224,32.783 C 47.612,32.505 62.072,18.448 62.057,-0.103 62.041,-18.538 47.698,-32.832 29.279,-32.857 10.811,-32.883 -3.566,-18.42 -3.547,-0.037 c 0.02,18.367 14.374,32.525 32.771,32.82"
             style="fill:#008cc0;fill-opacity:1;fill-rule:nonzero;stroke:none"
             id="path327" />
        </g>
        <g
           id="g329"
           transform="translate(580.6027,251.342)">
          <path
             d="m 0,0 c -16.046,0.074 -29.227,-13.032 -29.304,-29.138 -0.077,-16.03 12.99,-29.288 28.949,-29.372 16.312,-0.086 29.507,12.88 29.59,29.077 C 29.318,-13.205 16.277,-0.075 0,0 m -0.063,-62.107 c -18.249,0.313 -32.75,14.203 -32.765,32.826 -0.015,18.552 14.357,32.701 32.593,32.812 18.496,0.112 32.99,-14.238 33.006,-32.76 0.016,-18.456 -14.365,-32.595 -32.834,-32.878"
             style="fill:#008cc0;fill-opacity:1;fill-rule:nonzero;stroke:none"
             id="path331" />
        </g>
        <g
           id="g333"
           transform="translate(316.7008,249.6638)">
          <path
             d="M 0,0 C 16.174,-0.025 29.321,13.055 29.353,29.204 29.385,45.343 16.257,58.496 0.102,58.511 -16.007,58.527 -29.139,45.458 -29.181,29.366 -29.223,13.188 -16.143,0.026 0,0 M 0.08,-3.597 C -18.341,-3.295 -32.75,10.812 -32.713,29.318 -32.677,47.804 -18.267,62.05 0.085,62.042 18.565,62.033 32.915,47.67 32.88,29.193 32.845,10.746 18.493,-3.292 0.08,-3.597"
             style="fill:#008cc0;fill-opacity:1;fill-rule:nonzero;stroke:none"
             id="path335" />
        </g>
        <path
           d="m 502.523,122.703 h -8.162 v 61.422 h 8.162 z"
           style="fill:#163b4e;fill-opacity:1;fill-rule:nonzero;stroke:none"
           id="path337" />
        <g
           id="g339"
           transform="translate(321.714,169.0427)">
          <path
             d="m 0,0 v -46.282 h -8.29 v 1.314 c 0,9.791 0.007,19.582 -0.009,29.373 -0.003,1.273 0.273,2.403 0.949,3.509 2.352,3.85 4.633,7.742 6.945,11.617 0.07,0.116 0.179,0.21 0.405,0.469"
             style="fill:#163b4e;fill-opacity:1;fill-rule:nonzero;stroke:none"
             id="path341" />
        </g>
      </g>
    </g>
    <text
       xml:space="preserve"
       transform="matrix(0.75000002,0,0,-0.75000002,-28.769793,375.43367)"
       id="text446"
       style="font-size:64px;font-family:Helvetica;-inkscape-font-specification:Helvetica;white-space:pre;shape-inside:url(#rect448);fill:#163b4e;fill-opacity:1;stroke-width:1.333;stroke-linejoin:bevel"><tspan
         x="401.91602"
         y="448.64123"
         id="tspan4901">consulting <tspan
   style="font-family:Futura;-inkscape-font-specification:Futura"
   id="tspan4899">science</tspan></tspan></text>
  </g>
</svg>
