<?xml version="1.0" encoding="UTF-8" standalone="no"?>
<!-- Created with Inkscape (http://www.inkscape.org/) -->

<svg
   version="1.1"
   id="svg780"
   width="793.70081"
   height="1122.5197"
   viewBox="0 0 793.7008 1122.5197"
   sodipodi:docname="Permyriad - Logo - Only - Vector.pdf"
   xmlns:inkscape="http://www.inkscape.org/namespaces/inkscape"
   xmlns:sodipodi="http://sodipodi.sourceforge.net/DTD/sodipodi-0.dtd"
   xmlns="http://www.w3.org/2000/svg"
   xmlns:svg="http://www.w3.org/2000/svg">
  <defs
     id="defs784">
    <clipPath
       clipPathUnits="userSpaceOnUse"
       id="clipPath798">
      <path
         d="M 0,0 H 292.223 V 165 H 0 Z"
         id="path796" />
    </clipPath>
    <clipPath
       clipPathUnits="userSpaceOnUse"
       id="clipPath808">
      <path
         d="M 0,0 H 321 V 165 H 0 Z"
         id="path806" />
    </clipPath>
    <clipPath
       clipPathUnits="userSpaceOnUse"
       id="clipPath824">
      <path
         d="M 0,0 H 321 V 165 H 0 Z"
         id="path822" />
    </clipPath>
    <clipPath
       clipPathUnits="userSpaceOnUse"
       id="clipPath838">
      <path
         d="M 0,0 H 321 V 165 H 0 Z"
         id="path836" />
    </clipPath>
    <clipPath
       clipPathUnits="userSpaceOnUse"
       id="clipPath852">
      <path
         d="M 0,0 H 321 V 165 H 0 Z"
         id="path850" />
    </clipPath>
    <clipPath
       clipPathUnits="userSpaceOnUse"
       id="clipPath866">
      <path
         d="M 0,0 H 321 V 165 H 0 Z"
         id="path864" />
    </clipPath>
  </defs>
  <sodipodi:namedview
     id="namedview782"
     pagecolor="#ffffff"
     bordercolor="#000000"
     borderopacity="0.25"
     inkscape:showpageshadow="2"
     inkscape:pageopacity="0.0"
     inkscape:pagecheckerboard="0"
     inkscape:deskcolor="#d1d1d1"
     showgrid="false" />
  <g
     id="g788"
     inkscape:groupmode="layer"
     inkscape:label="Page 1"
     transform="scale(1.3333333)">
    <g
       id="g792">
      <g
         id="g794"
         clip-path="url(#clipPath798)">
        <g
           id="g800">
          <g
             id="g802">
            <g
               id="g804"
               clip-path="url(#clipPath808)">
              <g
                 id="g810">
                <path
                   d="M 126.41,0 C 93.965,54.48 61.52,108.957 29.086,163.445 c -0.316,0.528 -0.629,0.766 -1.27,0.746 -1.636,-0.054 -3.273,-0.019 -5.054,-0.019 0.183,-0.32 0.32,-0.563 0.461,-0.801 16.304,-27.375 32.609,-54.75 48.914,-82.129 16.015,-26.89 32.027,-53.777 48.039,-80.668 0.117,-0.195 0.242,-0.383 0.363,-0.574 z"
                   style="fill:#949494;fill-opacity:1;fill-rule:nonzero;stroke:none"
                   id="path812" />
              </g>
            </g>
          </g>
        </g>
      </g>
    </g>
    <g
       id="g814">
      <g
         id="g816">
        <g
           id="g818">
          <g
             id="g820"
             clip-path="url(#clipPath824)">
            <g
               id="g826">
              <path
                 d="m 150.547,95.555 c 0,-16.106 -13.121,-29.266 -29.172,-29.258 -16.238,0.012 -29.285,12.996 -29.328,29.195 -0.043,16.227 13.043,29.309 29.328,29.317 16.055,0.007 29.172,-13.149 29.172,-29.254 m 3.601,-0.035 c -0.269,18.343 -14.3,32.621 -32.652,32.847 -18.25,0.227 -33.023,-14.578 -33.047,-32.781 -0.027,-18.133 14.668,-32.969 32.863,-32.848 18.305,0.121 32.52,14.301 32.836,32.782"
                 style="fill:#008cc0;fill-opacity:1;fill-rule:nonzero;stroke:none"
                 id="path828" />
            </g>
          </g>
        </g>
      </g>
      <g
         id="g830">
        <g
           id="g832">
          <g
             id="g834"
             clip-path="url(#clipPath838)">
            <g
               id="g840">
              <path
                 d="m 175.184,95.484 c -0.024,16.188 13.054,29.313 29.211,29.325 16.167,0.007 29.312,-13.102 29.32,-29.247 0.008,-16.089 -13.074,-29.21 -29.18,-29.265 -16.168,-0.055 -29.328,13.031 -29.351,29.187 m 29.222,-32.785 c 18.391,0.281 32.848,14.336 32.836,32.887 -0.019,18.437 -14.359,32.73 -32.781,32.754 -18.465,0.027 -32.844,-14.438 -32.824,-32.82 0.019,-18.368 14.375,-32.524 32.769,-32.821"
                 style="fill:#008cc0;fill-opacity:1;fill-rule:nonzero;stroke:none"
                 id="path842" />
            </g>
          </g>
        </g>
      </g>
      <g
         id="g844">
        <g
           id="g846">
          <g
             id="g848"
             clip-path="url(#clipPath852)">
            <g
               id="g854">
              <path
                 d="m 287.613,66.297 c -16.043,-0.074 -29.226,13.031 -29.301,29.141 -0.078,16.027 12.989,29.285 28.95,29.371 16.308,0.086 29.504,-12.879 29.59,-29.079 0.082,-16.226 -12.961,-29.359 -29.239,-29.433 m -0.062,62.109 c -18.246,-0.312 -32.75,-14.203 -32.766,-32.828 -0.012,-18.551 14.36,-32.699 32.594,-32.812 18.496,-0.11 32.992,14.238 33.008,32.761 0.015,18.457 -14.367,32.594 -32.836,32.879"
                 style="fill:#008cc0;fill-opacity:1;fill-rule:nonzero;stroke:none"
                 id="path856" />
            </g>
          </g>
        </g>
      </g>
      <g
         id="g858">
        <g
           id="g860">
          <g
             id="g862"
             clip-path="url(#clipPath866)">
            <g
               id="g868">
              <path
                 d="M 32.715,85.977 C 48.887,86 62.035,72.922 62.066,56.773 62.098,40.633 48.969,27.48 32.816,27.465 16.707,27.449 3.574,40.52 3.531,56.609 3.488,72.789 16.57,85.949 32.715,85.977 m 0.078,3.597 C 14.371,89.27 -0.035,75.164 0,56.656 0.035,38.172 14.445,23.926 32.797,23.934 51.277,23.941 65.629,38.305 65.594,56.781 65.559,75.23 51.207,89.27 32.793,89.574"
                 style="fill:#008cc0;fill-opacity:1;fill-rule:nonzero;stroke:none"
                 id="path870" />
            </g>
          </g>
        </g>
      </g>
    </g>
  </g>
</svg>
