<?xml version="1.0" encoding="UTF-8" standalone="no"?>
<!-- Created with Inkscape (http://www.inkscape.org/) -->

<svg
   version="1.1"
   id="svg259"
   width="427.1813"
   height="218.92177"
   viewBox="0 0 427.1813 218.92179"
   sodipodi:docname="Logo.svg"
   inkscape:version="1.2.1 (9c6d41e, 2022-07-14)"
   inkscape:export-filename="Permyriad - Logo - Only - Vector.pdf"
   inkscape:export-xdpi="96"
   inkscape:export-ydpi="96"
   xmlns:inkscape="http://www.inkscape.org/namespaces/inkscape"
   xmlns:sodipodi="http://sodipodi.sourceforge.net/DTD/sodipodi-0.dtd"
   xmlns="http://www.w3.org/2000/svg"
   xmlns:svg="http://www.w3.org/2000/svg">
  <defs
     id="defs263">
    <clipPath
       clipPathUnits="userSpaceOnUse"
       id="clipPath1011">
      <g
         id="g1015"
         transform="translate(-321.714,-169.0427)">
        <path
           d="M 0,364.56 H 701.76 V 0 H 0 Z"
           id="path1013" />
      </g>
    </clipPath>
    <clipPath
       clipPathUnits="userSpaceOnUse"
       id="clipPath1017">
      <g
         id="g1021">
        <path
           d="M 0,364.56 H 701.76 V 0 H 0 Z"
           id="path1019" />
      </g>
    </clipPath>
    <clipPath
       clipPathUnits="userSpaceOnUse"
       id="clipPath1023">
      <g
         id="g1027"
         transform="translate(-316.7008,-249.6638)">
        <path
           d="M 0,364.56 H 701.76 V 0 H 0 Z"
           id="path1025" />
      </g>
    </clipPath>
    <clipPath
       clipPathUnits="userSpaceOnUse"
       id="clipPath1029">
      <g
         id="g1033"
         transform="translate(-580.6027,-251.342)">
        <path
           d="M 0,364.56 H 701.76 V 0 H 0 Z"
           id="path1031" />
      </g>
    </clipPath>
    <clipPath
       clipPathUnits="userSpaceOnUse"
       id="clipPath1035">
      <g
         id="g1039"
         transform="translate(-463.671,-222.156)">
        <path
           d="M 0,364.56 H 701.76 V 0 H 0 Z"
           id="path1037" />
      </g>
    </clipPath>
    <clipPath
       clipPathUnits="userSpaceOnUse"
       id="clipPath1041">
      <g
         id="g1045"
         transform="translate(-434.5353,-222.0866)">
        <path
           d="M 0,364.56 H 701.76 V 0 H 0 Z"
           id="path1043" />
      </g>
    </clipPath>
    <clipPath
       clipPathUnits="userSpaceOnUse"
       id="clipPath1047">
      <g
         id="g1051"
         transform="translate(-268.8219,-164.2585)">
        <path
           d="M 0,364.56 H 701.76 V 0 H 0 Z"
           id="path1049" />
      </g>
    </clipPath>
    <clipPath
       clipPathUnits="userSpaceOnUse"
       id="clipPath1053">
      <g
         id="g1057"
         transform="translate(-338.5065,-184.2112)">
        <path
           d="M 0,364.56 H 701.76 V 0 H 0 Z"
           id="path1055" />
      </g>
    </clipPath>
    <clipPath
       clipPathUnits="userSpaceOnUse"
       id="clipPath1059">
      <g
         id="g1063"
         transform="translate(-543.8048,-151.2605)">
        <path
           d="M 0,364.56 H 701.76 V 0 H 0 Z"
           id="path1061" />
      </g>
    </clipPath>
    <clipPath
       clipPathUnits="userSpaceOnUse"
       id="clipPath1065">
      <g
         id="g1069"
         transform="translate(-157.6603,-150.1589)">
        <path
           d="M 0,364.56 H 701.76 V 0 H 0 Z"
           id="path1067" />
      </g>
    </clipPath>
    <clipPath
       clipPathUnits="userSpaceOnUse"
       id="clipPath1071">
      <g
         id="g1075"
         transform="translate(-427.3829,-156.6374)">
        <path
           d="M 0,364.56 H 701.76 V 0 H 0 Z"
           id="path1073" />
      </g>
    </clipPath>
    <clipPath
       clipPathUnits="userSpaceOnUse"
       id="clipPath1077">
      <g
         id="g1081"
         transform="translate(-208.2174,-156.5808)">
        <path
           d="M 0,364.56 H 701.76 V 0 H 0 Z"
           id="path1079" />
      </g>
    </clipPath>
    <clipPath
       clipPathUnits="userSpaceOnUse"
       id="clipPath1083">
      <g
         id="g1087"
         transform="translate(-51.6075,-156.6452)">
        <path
           d="M 0,364.56 H 701.76 V 0 H 0 Z"
           id="path1085" />
      </g>
    </clipPath>
    <clipPath
       clipPathUnits="userSpaceOnUse"
       id="clipPath1089">
      <g
         id="g1093"
         transform="translate(-43.1998,-117.2937)">
        <path
           d="M 0,364.56 H 701.76 V 0 H 0 Z"
           id="path1091" />
      </g>
    </clipPath>
    <clipPath
       clipPathUnits="userSpaceOnUse"
       id="clipPath1095">
      <g
         id="g1099"
         transform="translate(-609.4064,-131.4851)">
        <path
           d="M 0,364.56 H 701.76 V 0 H 0 Z"
           id="path1097" />
      </g>
    </clipPath>
    <clipPath
       clipPathUnits="userSpaceOnUse"
       id="clipPath1101">
      <g
         id="g1105"
         transform="translate(-658.5597,-110.8191)">
        <path
           d="M 0,364.56 H 701.76 V 0 H 0 Z"
           id="path1103" />
      </g>
    </clipPath>
    <clipPath
       clipPathUnits="userSpaceOnUse"
       id="clipPath1107">
      <g
         id="g1111"
         transform="translate(-410.3995,-326.6399)">
        <path
           d="M 0,364.56 H 701.76 V 0 H 0 Z"
           id="path1109" />
      </g>
    </clipPath>
  </defs>
  <sodipodi:namedview
     id="namedview261"
     pagecolor="#ffffff"
     bordercolor="#000000"
     borderopacity="0.25"
     inkscape:showpageshadow="2"
     inkscape:pageopacity="0.0"
     inkscape:pagecheckerboard="0"
     inkscape:deskcolor="#d1d1d1"
     showgrid="false"
     inkscape:zoom="0.29732611"
     inkscape:cx="-158.07559"
     inkscape:cy="137.89573"
     inkscape:window-width="1295"
     inkscape:window-height="456"
     inkscape:window-x="88"
     inkscape:window-y="196"
     inkscape:window-maximized="0"
     inkscape:current-layer="g269" />
  <g
     id="g267"
     inkscape:groupmode="layer"
     inkscape:label="Page 1"
     transform="matrix(1.3333333,0,0,-1.3333333,-378.6503,435.51995)">
    <g
       id="g269">
      <g
         id="g277"
         transform="matrix(0.56909687,0,0,0.56909687,410.3995,326.63993)"
         clip-path="url(#clipPath1107)"
         style="stroke-width:1.61755;stroke-dasharray:none">
        <path
           d="M 0,1.3282513e-5 C -57.014,-95.729942 -114.029,-191.45885 -171.021,-287.20275 c -0.552,-0.9261 -1.105,-1.34308 -2.228,-1.30714 -2.875,0.0904 -5.755,0.0301 -8.883,0.0301 0.324,0.56304 0.563,0.98791 0.812,1.40702 28.65,48.10597 57.302,96.20995 85.951,144.31589 28.139,47.248998 56.275,94.497981 84.413,141.7469587 0.204,0.34199934 0.424,0.67399911 0.637,1.00999898657 z"
           style="fill:#949494;fill-opacity:1;fill-rule:nonzero;stroke:none;stroke-width:1.61755;stroke-dasharray:none"
           id="path279" />
      </g>
      <g
         id="g281"
         transform="translate(658.5597,110.8191)"
         style="display:none"
         clip-path="url(#clipPath1101)">
        <path
           d="m 0,0 h -371.508 c 0.128,0.348 0.182,0.603 0.307,0.815 0.949,1.621 1.932,3.221 2.857,4.854 0.358,0.631 0.801,0.942 1.533,0.848 0.314,-0.041 0.639,-0.007 0.959,-0.007 121.431,0 242.863,0.001 364.294,-10e-4 0.52,0 1.038,-0.023 1.558,-0.034 z"
           style="fill:#008cc0;fill-opacity:1;fill-rule:nonzero;stroke:none"
           id="path283" />
      </g>
      <g
         id="g321"
         transform="translate(434.5353,231.0866)"
         clip-path="url(#clipPath1041)">
        <path
           d="M 0,0 C 0.001,16.106 -13.121,29.266 -29.172,29.256 -45.411,29.246 -58.456,16.26 -58.499,0.06 -58.543,-16.167 -45.457,-29.247 -29.171,-29.255 -13.118,-29.264 0,-16.108 0,0 m 3.601,0.034 c -0.268,-18.343 -14.3,-32.621 -32.651,-32.848 -18.25,-0.226 -33.023,14.578 -33.05,32.78 -0.026,18.136 14.67,32.972 32.863,32.85 18.305,-0.122 32.522,-14.3 32.838,-32.782"
           style="fill:#008cc0;fill-opacity:1;fill-rule:nonzero;stroke:none"
           id="path323" />
      </g>
      <g
         id="g325"
         transform="translate(459.171,231.156)"
         clip-path="url(#clipPath1035)">
        <path
           d="m 0,0 c -0.023,-16.187 13.054,-29.314 29.213,-29.324 16.168,-0.01 29.31,13.099 29.317,29.245 C 58.538,16.012 45.457,29.131 29.351,29.186 13.183,29.24 0.023,16.155 0,0 M 29.224,32.783 C 47.612,32.505 62.072,18.448 62.057,-0.103 62.041,-18.538 47.698,-32.832 29.279,-32.857 10.811,-32.883 -3.566,-18.42 -3.547,-0.037 c 0.02,18.367 14.374,32.525 32.771,32.82"
           style="fill:#008cc0;fill-opacity:1;fill-rule:nonzero;stroke:none"
           id="path327" />
      </g>
      <g
         id="g329"
         transform="translate(571.6027,260.342)"
         clip-path="url(#clipPath1029)">
        <path
           d="m 0,0 c -16.046,0.074 -29.227,-13.032 -29.304,-29.138 -0.077,-16.03 12.99,-29.288 28.949,-29.372 16.312,-0.086 29.507,12.88 29.59,29.077 C 29.318,-13.205 16.277,-0.075 0,0 m -0.063,-62.107 c -18.249,0.313 -32.75,14.203 -32.765,32.826 -0.015,18.552 14.357,32.701 32.593,32.812 18.496,0.112 32.99,-14.238 33.006,-32.76 0.016,-18.456 -14.365,-32.595 -32.834,-32.878"
           style="fill:#008cc0;fill-opacity:1;fill-rule:nonzero;stroke:none"
           id="path331" />
      </g>
      <g
         id="g333"
         transform="translate(316.7008,240.6638)"
         clip-path="url(#clipPath1023)">
        <path
           d="M 0,0 C 16.174,-0.025 29.321,13.055 29.353,29.204 29.385,45.343 16.257,58.496 0.102,58.511 -16.007,58.527 -29.139,45.458 -29.181,29.366 -29.223,13.188 -16.143,0.026 0,0 M 0.08,-3.597 C -18.341,-3.295 -32.75,10.812 -32.713,29.318 -32.677,47.804 -18.267,62.05 0.085,62.042 18.565,62.033 32.915,47.67 32.88,29.193 32.845,10.746 18.493,-3.292 0.08,-3.597"
           style="fill:#008cc0;fill-opacity:1;fill-rule:nonzero;stroke:none"
           id="path335" />
      </g>
    </g>
  </g>
</svg>
